<?xml version="1.0" encoding="utf-8"?>
<!-- Generator: Adobe Illustrator 23.0.6, SVG Export Plug-In . SVG Version: 6.00 Build 0)  -->
<svg version="1.1" id="Layer_1" xmlns="http://www.w3.org/2000/svg" xmlns:xlink="http://www.w3.org/1999/xlink" x="0px" y="0px"
	 viewBox="0 0 595.28 602.45" style="enable-background:new 0 0 595.28 602.45;" xml:space="preserve">
<style type="text/css">
	.st0{fill:#FFFFFF;}
	.st1{fill:#295DAA;}
	.st2{fill:#FDDB00;}
</style>
<g id="eWallet_RGB_1_">
	<g id="eWallet_8_">
		<g>
			<path class="st0" d="M454.52,13.03H140.58C68.32,13.03,9.52,71.82,9.52,144.09v313.93c0,72.27,58.8,131.06,131.06,131.06h313.94
				c72.27,0,131.05-58.8,131.05-131.06V144.09C585.57,71.82,526.79,13.03,454.52,13.03"/>
			<path class="st1" d="M455.49,35.39H139.62c-59.41,0-107.74,48.33-107.74,107.73v315.87c0,59.41,48.33,107.73,107.74,107.73
				h315.87c59.39,0,107.73-48.33,107.73-107.73V143.12C563.22,83.72,514.88,35.39,455.49,35.39"/>
			<g>
				<g>
					<path class="st0" d="M242.42,255.3H214.9c-8.07,0-18.53,5.71-21.55,13.31l2.76-14.57h-33.63l-14.94,83.77h33.67l9.3-53.03
						h36.22c0,0-4.63,26.26-6.69,38.02c-2.06,11.76,5.93,14.62,9.87,14.62h17.61L259,272.27
						C258.05,262.93,251.75,255.3,242.42,255.3"/>
					<polygon class="st0" points="138.24,254.04 131.92,289.99 157.5,254.04 					"/>
					<g>
						<polygon class="st0" points="178.17,122.83 65.54,122.83 60.65,150.59 99.96,150.59 84.21,240.03 118.12,240.03 
							133.95,150.59 173.27,150.59 						"/>
						<path class="st0" d="M201.47,212.57l4.94-27.99h-30.18l-4.91,27.99H201.47 M153.93,240.03c-9.33,0-15.61-7.64-13.97-16.98
							l8.66-48.98c1.62-9.33,10.63-16.97,19.93-16.97h55.22c9.33,0,15.63,7.64,13.93,16.97l-8.6,48.98
							c-1.66,9.34-10.64,16.98-19.96,16.98H153.93z"/>
						<path class="st0" d="M376.07,212.57l4.95-27.99h43.71l4.85-27.46h-56.23c-9.33,0-18.36,7.62-19.99,16.95l-8.63,48.98
							c-1.65,9.34,4.64,16.97,14,16.97h54.67l4.82-27.45H376.07z"/>
						<path class="st0" d="M307.34,212.57h-37l9.76-55.46h-29.48l-11.59,65.94c-1.65,9.34,4.63,16.97,13.96,16.97h28.74
							c9.33,0,16.96-5.55,22.99-12.73c0,0,3.29,9.6,8.02,11.75c4.76,2.18,19.14,1.67,19.14,1.67l14.76-83.59h-29.5L307.34,212.57z"
							/>
						<path class="st0" d="M519.91,157.52h-27.5c-8.09,0-15.9,5.72-18.93,13.31l7.92-45.04H450.4l-20.14,114.23h31.03l9.33-53.01
							h33.63c0,0-4.62,26.24-6.68,38.02c-2.08,11.73,5.93,14.61,9.82,14.61h15.02l11.48-65.15
							C535.52,165.15,529.25,157.52,519.91,157.52"/>
						<path class="st0" d="M409.37,365.68c-12.54,0-21-10.32-18.81-22.85l11.63-65.84c2.19-12.58,14.3-22.85,26.89-22.85h70.24
							c12.51,0,21.02,10.27,18.8,22.85l-11.62,65.84c-2.22,12.52-14.31,22.85-26.86,22.85H409.37 M474.81,334.9l8.86-49.99h-49.79
							l-8.84,49.99H474.81z"/>
						<path class="st0" d="M341.26,334.9h-49.83l8.83-49.99h80.77l5.33-30.78h-90.88c-12.58,0-24.64,10.27-26.85,22.85l-11.63,65.84
							c-2.2,12.52,6.23,22.85,18.79,22.85h70.28c12.57,0,24.67-10.32,26.86-22.85l7.11-40.41h-33.08L341.26,334.9z"/>
					</g>
				</g>
				<g>
					<g>
						<g>
							<g>
								<path class="st2" d="M272.26,405.14l-42.33,87.25h-26.86l-3.19-52.81l-25.64,52.81h-27.01l-5.16-87.25h19.12l3.34,68.43
									l32.93-68.43h19.42l3.34,68.43l32.93-68.43H272.26z"/>
								<path class="st2" d="M352.22,492.39h-18.66l18.51-87.25h18.66L352.22,492.39z"/>
								<path class="st2" d="M382.87,492.39h-18.66l18.51-87.25h18.66L382.87,492.39z"/>
								<path class="st2" d="M511.85,492.39h-15.02c-6.98,0-11.83-0.68-14.57-2.05c-2.73-1.37-4.1-4.12-4.1-8.27
									c0-2.33,0.35-5.06,1.06-8.19l14.57-68.74h18.66l-4.7,21.7h18.06l-3.49,15.78h-17.75l-5.31,24.89
									c-0.51,2.53-0.76,4.2-0.76,5.01c0,1.72,0.58,2.83,1.74,3.34c1.16,0.51,3.51,0.76,7.06,0.76h7.89L511.85,492.39z"/>
							</g>
							<g>
								<path class="st2" d="M272.26,405.14l-42.33,87.25h-26.86l-3.19-52.81l-25.64,52.81h-27.01l-5.16-87.25h19.12l3.34,68.43
									l32.93-68.43h19.42l3.34,68.43l32.93-68.43H272.26z"/>
								<path class="st2" d="M352.22,492.39h-18.66l18.51-87.25h18.66L352.22,492.39z"/>
								<path class="st2" d="M382.87,492.39h-18.66l18.51-87.25h18.66L382.87,492.39z"/>
								<path class="st2" d="M511.85,492.39h-15.02c-6.98,0-11.83-0.68-14.57-2.05c-2.73-1.37-4.1-4.12-4.1-8.27
									c0-2.33,0.35-5.06,1.06-8.19l14.57-68.74h18.66l-4.7,21.7h18.06l-3.49,15.78h-17.75l-5.31,24.89
									c-0.51,2.53-0.76,4.2-0.76,5.01c0,1.72,0.58,2.83,1.74,3.34c1.16,0.51,3.51,0.76,7.06,0.76h7.89L511.85,492.39z"/>
							</g>
							<g>
								<path class="st2" d="M272.26,405.14l-42.33,87.25h-26.86l-3.19-52.81l-25.64,52.81h-27.01l-5.16-87.25h19.12l3.34,68.43
									l32.93-68.43h19.42l3.34,68.43l32.93-68.43H272.26z"/>
								<path class="st2" d="M352.22,492.39h-18.66l18.51-87.25h18.66L352.22,492.39z"/>
								<path class="st2" d="M382.87,492.39h-18.66l18.51-87.25h18.66L382.87,492.39z"/>
								<path class="st2" d="M511.85,492.39h-15.02c-6.98,0-11.83-0.68-14.57-2.05c-2.73-1.37-4.1-4.12-4.1-8.27
									c0-2.33,0.35-5.06,1.06-8.19l14.57-68.74h18.66l-4.7,21.7h18.06l-3.49,15.78h-17.75l-5.31,24.89
									c-0.51,2.53-0.76,4.2-0.76,5.01c0,1.72,0.58,2.83,1.74,3.34c1.16,0.51,3.51,0.76,7.06,0.76h7.89L511.85,492.39z"/>
							</g>
						</g>
						<path class="st2" d="M130.43,428.81c-2.73-1.42-7.59-2.12-14.57-2.12H89.16c-7.69,0-13.53,1.44-17.53,4.32
							c-4,2.88-6.7,7.66-8.12,14.34l-5.92,28.38c-0.41,1.72-0.71,3.26-0.91,4.63c-0.2,1.37-0.3,2.61-0.3,3.72
							c0,2.03,0.3,3.67,0.91,4.93c0.61,1.27,1.62,2.3,3.03,3.11c1.42,0.81,3.34,1.36,5.77,1.67c2.43,0.3,5.46,0.46,9.1,0.46h45.37
							l3.34-15.63H85.67c-3.54,0-5.89-0.28-7.06-0.83c-1.16-0.56-1.74-1.69-1.74-3.42c0-1.21,0.2-2.83,0.61-4.85l0.01-0.05h7.89
							l-0.01,0.05h43.4l4.7-22.15c0.71-3.24,1.06-6.02,1.06-8.35C134.53,432.96,133.16,430.23,130.43,428.81z M114.04,451.72H93.18
							v-0.02H80.81c0.4-2.01,0.88-3.63,1.44-4.84c0.56-1.21,1.26-2.15,2.13-2.81c0.86-0.66,1.97-1.09,3.34-1.29
							c1.37-0.2,3.06-0.3,5.08-0.3h14.87c4.86,0,7.28,1.52,7.28,4.55C114.95,447.32,114.65,448.89,114.04,451.72z"/>
						<path class="st2" d="M330.9,431.99c-0.66-1.31-1.72-2.35-3.19-3.11c-1.46-0.76-3.39-1.29-5.76-1.59
							c-2.38-0.3-5.34-0.46-8.88-0.46h-45.22l-3.34,15.78h38.24c3.54,0,5.89,0.25,7.06,0.76c1.16,0.51,1.75,1.62,1.75,3.34
							c0,0.81-0.25,2.47-0.76,4.99h-14.95v0.02h-14.64c-4.35,0-7.97,0.23-10.85,0.68c-2.88,0.45-5.29,1.34-7.21,2.65
							c-1.92,1.32-3.44,3.19-4.55,5.62c-1.11,2.43-2.12,5.61-3.03,9.56l-0.76,3.64c-0.71,3.14-1.06,5.87-1.06,8.19
							c0,2.12,0.33,3.85,0.99,5.16c0.66,1.32,1.72,2.35,3.19,3.11c1.46,0.76,3.39,1.29,5.77,1.59c2.38,0.3,5.33,0.46,8.88,0.46
							h48.25l10.02-47.04c0.7-3.13,1.06-5.86,1.06-8.19C331.89,435.03,331.56,433.31,330.9,431.99z M277.42,476.61
							c-2.73,0-4.1-1.16-4.1-3.49c0-1.42,0.55-2.71,1.67-3.87c1.11-1.16,2.58-1.75,4.4-1.75h20.18l0.01-0.05h7.86l-1.95,9.15H277.42
							z"/>
						<path class="st2" d="M471.34,428.81c-2.73-1.42-7.59-2.12-14.57-2.12h-26.71c-7.69,0-13.53,1.44-17.53,4.32
							c-4,2.88-6.7,7.66-8.12,14.34l-5.92,28.38c-0.41,1.72-0.71,3.26-0.91,4.63c-0.2,1.37-0.3,2.61-0.3,3.72
							c0,2.03,0.3,3.67,0.91,4.93c0.61,1.27,1.62,2.3,3.03,3.11c1.42,0.81,3.34,1.36,5.77,1.67c2.43,0.3,5.46,0.46,9.11,0.46h45.37
							l3.34-15.63h-38.24c-3.54,0-5.9-0.28-7.06-0.83c-1.16-0.56-1.75-1.69-1.75-3.42c0-1.21,0.2-2.83,0.61-4.85l0.01-0.05h7.89
							l-0.01,0.05h43.4l4.7-22.15c0.71-3.24,1.06-6.02,1.06-8.35C475.43,432.96,474.07,430.23,471.34,428.81z M454.95,451.72H435.3
							v-0.02h-13.58c0.4-2.01,0.88-3.63,1.44-4.84c0.55-1.21,1.26-2.15,2.12-2.81c0.86-0.66,1.97-1.09,3.34-1.29
							c1.37-0.2,3.06-0.3,5.08-0.3h14.87c4.85,0,7.28,1.52,7.28,4.55C455.86,447.32,455.56,448.89,454.95,451.72z"/>
					</g>
				</g>
			</g>
		</g>
	</g>
</g>
</svg>
